Coordinates
version=1
nRows=24
nColumns=24
inDegrees=yes

Units are S.I. units (second, meters, Newtons, ...)
Angles are in degrees.

endheader
time	pelvis_tilt	pelvis_list	pelvis_rotation	pelvis_tx	pelvis_ty	pelvis_tz	hip_flexion_r	hip_adduction_r	hip_rotation_r	knee_angle_r	ankle_angle_r	subtalar_angle_r	mtp_angle_r	hip_flexion_l	hip_adduction_l	hip_rotation_l	knee_angle_l	ankle_angle_l	subtalar_angle_l	mtp_angle_l	lumbar_extension	lumbar_bending	lumbar_rotation
      0.94666667	     -2.24042451	     -1.84918063	      0.32659398	     -0.39181133	      0.99072034	      0.34386035	     12.47490700	      6.81235528	     -1.84311871	    -18.01375375	      7.55800670	     -5.71115419	      4.55091595	     17.31875071	     -1.44915410	      0.19396537	    -72.09246219	     -7.84941006	    -11.41889028	      0.12051785	      3.34455451	      5.95291631	      3.46424619
      0.95083333	     -2.20614531	     -1.78682928	      0.13562963	     -0.38709237	      0.99128647	      0.34417861	     11.98126083	      6.78439292	     -1.72344812	    -17.70810072	      7.51506805	     -5.53928423	      4.55099765	     17.91156121	     -1.40065511	      0.09337564	    -72.14007113	     -7.25940489	    -11.85744241	      0.07823686	      3.23484536	      5.88685954	      3.62866604
      0.95500000	     -2.16652881	     -1.70511003	     -0.04346900	     -0.38235129	      0.99185458	      0.34444977	     11.47651308	      6.72758297	     -1.61366633	    -17.39613400	      7.51552555	     -5.37009163	      4.55066102	     18.48352931	     -1.31877967	      0.01464524	    -72.12951485	     -6.67320284	    -12.23621987	      0.02841841	      3.13382622	      5.80541997	      3.78997964
      0.95916667	     -2.12339379	     -1.61980664	     -0.22166988	     -0.37760771	      0.99239803	      0.34471636	     10.96432242	      6.66242066	     -1.50832451	    -17.07277104	      7.51822831	     -5.13445369	      4.54618947	     19.04129316	     -1.23403816	     -0.05697941	    -72.07237295	     -6.10734057	    -12.55738934	     -0.09588145	      3.03303327	      5.72772575	      4.05886226
      0.96333333	     -2.09119114	     -1.54464705	     -0.40468806	     -0.37291471	      0.99288913	      0.34497851	     10.48364555	      6.60782619	     -1.39309376	    -16.78725040	      7.54649488	     -4.99136830	      4.54392488	     19.61029453	     -1.16696245	     -0.13770745	    -71.98666932	     -5.50503868	    -12.87103442	     -0.15834361	      2.93731527	      5.64933056	      4.14700768
      0.96750000	     -2.05240669	     -1.46233411	     -0.58926910	     -0.36820504	      0.99337374	      0.34524143	      9.98958627	      6.54316476	     -1.27370893	    -16.48862652	      7.56755382	     -4.82382745	      4.54027124	     20.15790040	     -1.09439969	     -0.21620328	    -71.85132147	     -4.91298854	    -13.12504873	     -0.22647796	      2.83750034	      5.56425801	      4.28028660
      0.97166667	     -2.01964901	     -1.37740242	     -0.76766880	     -0.36349205	      0.99382241	      0.34547446	      9.49766364	      6.46947162	     -1.15906197	    -16.17854632	      7.59775983	     -4.60062190	      4.52874962	     20.70230753	     -1.01439886	     -0.27837049	    -71.67200345	     -4.32993816	    -13.28554344	     -0.37156562	      2.74840627	      5.49057010	      4.52232175
      0.97583333	     -2.00812771	     -1.29291883	     -0.94774245	     -0.35880529	      0.99421615	      0.34569219	      9.04569975	      6.39339739	     -1.04737102	    -15.90430059	      7.65437268	     -4.48304787	      4.52602405	     21.26349684	     -0.93585793	     -0.34409670	    -71.45435787	     -3.75931320	    -13.50147734	     -0.41280737	      2.69704583	      5.41702974	      4.57786212
      0.98000000	     -1.96747645	     -1.23228468	     -1.14134792	     -0.35413976	      0.99459687	      0.34596818	      8.55996674	      6.34692641	     -0.91383178	    -15.61883718	      7.68366074	     -4.29323209	      4.51666268	     21.78711107	     -0.90566642	     -0.42614012	    -71.21120343	     -3.14508203	    -13.57482453	     -0.49996576	      2.57369759	      5.33728665	      4.74633548
      0.98416667	     -1.92939299	     -1.15888613	     -1.31388739	     -0.34944086	      0.99497731	      0.34617758	      8.06434754	      6.27628037	     -0.80163723	    -15.31035183	      7.73812796	     -4.10737073	      4.49843126	     22.29680625	     -0.84475778	     -0.47426994	    -70.91133062	     -2.56302900	    -13.58875952	     -0.63271743	      2.48526158	      5.27575980	      4.94689653
      0.98833333	     -1.91080433	     -1.08117604	     -1.50601118	     -0.34478637	      0.99529426	      0.34639466	      7.61501956	      6.19952110	     -0.68038517	    -15.05088656	      7.79572825	     -3.97252637	      4.49058271	     22.81939850	     -0.78680975	     -0.54568397	    -70.57431796	     -1.99448378	    -13.67680135	     -0.68823252	      2.41140580	      5.20782557	      5.02347098
      0.99250000	     -1.85650805	     -1.01875291	     -1.68180592	     -0.34011136	      0.99564206	      0.34662778	      7.10611573	      6.13838976	     -0.55788842	    -14.74781239	      7.84885999	     -3.79335104	      4.47695640	     23.29297167	     -0.75390938	     -0.60518720	    -70.19985629	     -1.40745804	    -13.61268316	     -0.76600135	      2.28755048	      5.12492121	      5.17598092
      0.99666667	     -1.83611339	     -0.95023758	     -1.86342480	     -0.33545402	      0.99590470	      0.34682619	      6.64864349	      6.06452447	     -0.44298942	    -14.47401458	      7.91074396	     -3.63741217	      4.46512216	     23.79232397	     -0.70807493	     -0.65781138	    -69.78620861	     -0.84607417	    -13.56414328	     -0.82659816	      2.20973946	      5.06823296	      5.29638031
      1.00083333	     -1.78354357	     -0.89756263	     -2.01991510	     -0.33078597	      0.99618990	      0.34701682	      6.13790441	      6.00346116	     -0.35037794	    -14.16059352	      7.98234064	     -3.45453472	      4.44146965	     24.24848595	     -0.67788099	     -0.68437884	    -69.33584629	     -0.29952394	    -13.39390079	     -0.93104079	      2.09968378	      5.01282724	      5.48097167
      1.00500000	     -1.77883150	     -0.84010030	     -2.20313553	     -0.32616943	      0.99636310	      0.34721372	      5.70608760	      5.93810678	     -0.22365201	    -13.89936039	      8.04739645	     -3.31030506	      4.43082318	     24.74887881	     -0.65189100	     -0.73839620	    -68.85470390	      0.23186400	    -13.33237554	     -0.97462569	      2.02505788	      4.94749137	      5.55718015
      1.00916667	     -1.73414353	     -0.79036359	     -2.37601295	     -0.32148922	      0.99657548	      0.34739880	      5.21387865	      5.87267268	     -0.13433457	    -13.60895802	      8.11610064	     -3.13847532	      4.41312918	     25.18216241	     -0.63754878	     -0.78498050	    -68.32380871	      0.77809734	    -13.10042125	     -1.03712316	      1.94043072	      4.92222771	      5.70262153
      1.01333333	     -1.69073096	     -0.74791226	     -2.53828769	     -0.31683926	      0.99676599	      0.34757741	      4.72169725	      5.81408610	     -0.03814789	    -13.31103414	      8.18285362	     -2.97710005	      4.39523495	     25.61065278	     -0.62717750	     -0.81720621	    -67.75924442	      1.28283347	    -12.90689511	     -1.09570473	      1.83378522	      4.87984977	      5.82732891
      1.01750000	     -1.66190859	     -0.71647161	     -2.69453468	     -0.31218776	      0.99688826	      0.34774866	      4.24681025	      5.76486889	      0.04956188	    -13.01680054	      8.25004407	     -2.81711762	      4.37666432	     26.04509296	     -0.63054477	     -0.84330784	    -67.16540703	      1.77671334	    -12.68559182	     -1.15295492	      1.74800180	      4.84989837	      5.94862589
      1.02166667	     -1.60714002	     -0.68325900	     -2.83693838	     -0.30751884	      0.99703888	      0.34790081	      3.73341674	      5.70798086	      0.11683196	    -12.70043437	      8.31888481	     -2.65152497	      4.35051390	     26.43508035	     -0.62696795	     -0.85789326	    -66.52680055	      2.24361885	    -12.44193797	     -1.23022348	      1.62955444	      4.80807329	      6.08814425
      1.02583333	     -1.60000101	     -0.65148537	     -2.99987870	     -0.30288513	      0.99706620	      0.34806146	      3.29528500	      5.65291000	      0.20683902	    -12.43166511	      8.38479694	     -2.49685727	      4.33470977	     26.86532509	     -0.63514672	     -0.89153842	    -65.85709200	      2.69680095	    -12.23034378	     -1.27688645	      1.56802077	      4.78654861	      6.17580130
      1.03000000	     -1.55356772	     -0.63327615	     -3.14289054	     -0.29821507	      0.99714567	      0.34819805	      2.79468244	      5.60698900	      0.27907160	    -12.12427423	      8.44970671	     -2.33684751	      4.31941025	     27.23460362	     -0.65072490	     -0.90752943	    -65.14563738	      3.12967093	    -11.99235320	     -1.32103011	      1.46106520	      4.76941326	      6.28009581
      1.03416667	     -1.51940235	     -0.61946384	     -3.27952807	     -0.29355127	      0.99715980	      0.34833727	      2.31056648	      5.56386536	      0.33807554	    -11.82212305	      8.51123037	     -2.18047967	      4.30458018	     27.60819280	     -0.67400329	     -0.92086531	    -64.40623806	      3.53837934	    -11.75091578	     -1.36486632	      1.36946413	      4.75696942	      6.38467289
      1.03833333	     -1.48391087	     -0.60970165	     -3.41381863	     -0.28887882	      0.99715636	      0.34845950	      1.82417325	      5.52201351	      0.39554833	    -11.51944414	      8.57146847	     -2.02041137	      4.29178467	     27.96144613	     -0.69789725	     -0.92957623	    -63.62562823	      3.92337104	    -11.51989963	     -1.40583022	      1.27677744	      4.74850373	      6.48353937
      1.04250000	     -1.43177648	     -0.60385937	     -3.53850782	     -0.28418909	      0.99714876	      0.34857147	      1.31406130	      5.47948773	      0.43674791	    -11.20612274	      8.63171159	     -1.85876328	      4.27962197	     28.28060951	     -0.72629056	     -0.94001860	    -62.80758748	      4.28352957	    -11.29649313	     -1.44927822	      1.16820201	      4.74064992	      6.58695779
